<?xml version="1.0" standalone="no"?>
<!DOCTYPE svg PUBLIC "-//W3C//DTD SVG 20010904//EN"
 "http://www.w3.org/TR/2001/REC-SVG-20010904/DTD/svg10.dtd">
<svg version="1.0" xmlns="http://www.w3.org/2000/svg"
 width="500.000000pt" height="500.000000pt" viewBox="0 0 500.000000 500.000000"
 preserveAspectRatio="xMidYMid meet">
<metadata>
Created by potrace 1.14, written by Peter Selinger 2001-2017
</metadata>
<g transform="translate(0.000000,500.000000) scale(0.100000,-0.100000)"
fill="#000000" stroke="none">
<path d="M1190 3847 c0 -9 18 -26 40 -37 22 -11 55 -35 74 -53 35 -34 41 -51
122 -324 15 -51 29 -91 31 -89 5 5 -68 289 -89 351 -18 51 -42 80 -98 117
l-45 30 40 -7 c22 -4 106 -33 188 -65 81 -32 147 -56 147 -54 0 6 -147 74
-234 108 -87 35 -176 46 -176 23z"/>
<path d="M1620 3700 c8 -5 20 -10 25 -10 6 0 3 5 -5 10 -8 5 -19 10 -25 10 -5
0 -3 -5 5 -10z"/>
<path d="M1610 3656 c0 -2 8 -10 18 -17 15 -13 16 -12 3 4 -13 16 -21 21 -21
13z"/>
<path d="M1650 3628 c0 -3 28 -27 63 -54 139 -109 253 -223 313 -316 24 -37
74 -109 110 -159 36 -51 79 -113 94 -140 32 -53 80 -180 80 -210 0 -10 4 -19
9 -19 8 0 -7 82 -27 147 -20 62 -65 140 -141 243 -43 58 -95 131 -115 162 -40
61 -131 151 -242 239 -93 75 -144 112 -144 107z"/>
<path d="M1461 3314 c0 -11 3 -14 6 -6 3 7 2 16 -1 19 -3 4 -6 -2 -5 -13z"/>
<path d="M1780 3312 c0 -5 8 -20 19 -33 10 -13 57 -82 104 -154 48 -71 94
-141 104 -155 81 -113 283 -460 283 -485 0 -3 -7 -5 -15 -5 -8 0 -15 -5 -15
-10 0 -6 -16 -27 -35 -47 l-34 -35 -74 27 c-132 48 -215 101 -312 199 -71 72
-83 81 -57 45 45 -66 131 -148 195 -187 30 -18 95 -47 144 -65 86 -31 90 -33
81 -56 l-8 -24 -19 22 c-19 22 -37 29 -25 10 4 -8 0 -8 -15 0 -27 15 -47 5
-30 -15 9 -11 9 -18 1 -26 -6 -6 -8 -17 -5 -24 3 -8 1 -14 -5 -14 -8 0 -57 34
-72 50 -3 3 -11 6 -19 8 -12 3 -12 0 -2 -12 7 -8 15 -33 17 -56 5 -39 4 -40
-15 -28 -16 10 -23 9 -39 -5 -10 -9 -24 -17 -30 -17 -14 0 -24 -32 -17 -52 3
-8 -1 -20 -9 -27 -10 -9 -12 -19 -7 -34 5 -12 6 -28 4 -34 -6 -17 -35 -17 -52
0 -10 10 -12 6 -9 -18 2 -25 -1 -30 -19 -30 -12 0 -25 -3 -28 -7 -8 -7 23 -77
43 -97 7 -7 11 -20 8 -27 -3 -8 0 -11 10 -7 17 6 19 -18 2 -35 -6 -6 -8 -15
-4 -19 4 -4 10 -3 14 3 10 14 34 11 42 -6 4 -8 15 -29 24 -47 19 -37 20 -47 5
-37 -9 5 -10 -1 -5 -21 6 -22 4 -26 -8 -22 -19 7 -20 3 -5 -24 7 -14 7 -29 -2
-53 -11 -29 -10 -38 5 -60 10 -17 26 -26 42 -26 31 0 67 -18 59 -30 -3 -4 -15
-6 -28 -3 -20 4 -19 2 7 -21 17 -14 35 -22 40 -18 6 3 5 -2 -2 -10 -8 -9 -20
-14 -28 -11 -22 8 -17 -15 6 -27 16 -9 20 -8 20 5 0 8 4 15 8 15 15 0 44 -38
38 -49 -4 -5 3 -12 14 -16 23 -7 27 -35 5 -35 -18 0 -20 -21 -3 -38 17 -17 31
-15 25 2 -10 25 15 23 75 -6 63 -30 97 -35 116 -16 9 9 17 6 36 -11 16 -15 32
-22 46 -18 11 3 20 2 20 -1 0 -19 55 -29 128 -25 l78 5 52 -50 c29 -28 52 -46
52 -42 0 5 5 21 12 37 6 15 10 34 9 42 -2 8 3 12 12 8 17 -6 28 1 50 33 10 14
22 26 27 26 6 1 15 2 20 3 6 0 10 10 10 22 0 14 4 18 13 12 6 -4 19 -8 26 -10
44 -6 78 -6 88 0 6 4 23 3 38 -3 18 -7 39 -7 63 -1 19 6 42 6 51 2 30 -16 80
3 81 29 0 3 -14 11 -30 18 -39 17 -30 32 14 25 28 -4 39 0 58 18 13 13 37 33
53 43 27 18 27 20 9 26 -10 4 -44 10 -75 14 -76 10 -100 39 -79 96 2 3 2 8 1
12 0 4 7 4 16 1 9 -4 21 0 27 9 6 9 20 16 31 16 43 -1 43 -1 39 98 -3 94 -13
124 -40 124 -7 0 -22 14 -34 30 -19 27 -20 32 -6 45 14 15 46 11 46 -5 0 -5
15 -17 33 -28 43 -27 130 -25 150 2 13 17 11 24 -17 62 -34 47 -47 52 -70 28
-15 -14 -17 -14 -22 1 -4 10 -14 15 -26 12 -25 -7 -82 10 -107 31 -13 11 -21
33 -25 67 -5 58 -29 128 -45 133 -6 2 -11 0 -11 -5 0 -5 -6 -17 -13 -27 -13
-17 -15 -17 -46 -1 -19 9 -43 14 -54 11 -13 -3 -25 1 -33 12 -12 16 -13 15
-14 -5 0 -16 -4 -21 -16 -16 -14 5 -14 2 2 -22 l19 -29 -25 7 c-14 4 -33 7
-42 7 -9 0 -33 16 -53 35 -21 19 -61 55 -91 80 l-54 46 21 28 c24 33 19 91 -7
87 -20 -3 -34 -25 -27 -43 3 -8 -2 -13 -15 -13 -11 0 -22 -5 -24 -11 -2 -5
-16 -12 -31 -13 -27 -3 -28 -2 -23 38 2 22 5 53 5 69 1 21 6 27 24 27 22 0 21
1 -3 13 -24 12 -25 15 -26 132 l-2 119 37 -40 c20 -21 74 -81 120 -132 46 -50
88 -92 93 -92 4 0 8 65 8 145 0 142 1 146 23 155 28 11 25 12 -45 14 -31 1
-54 -2 -51 -7 3 -4 8 -6 11 -3 3 3 11 1 19 -5 9 -8 13 -41 13 -118 -1 -86 -3
-103 -13 -90 -10 13 -77 88 -184 204 -12 14 -32 20 -63 21 -38 1 -42 0 -22 -9
25 -11 24 -8 23 -165 0 -116 -3 -132 -25 -132 -10 0 -13 28 -14 112 -1 61 -4
113 -7 116 -8 9 -14 -2 -19 -38 -4 -19 -24 -70 -45 -112 -45 -90 -38 -94 14
-8 20 33 37 60 38 60 1 0 2 -38 3 -85 1 -69 -2 -83 -13 -74 -7 6 -21 9 -32 6
-10 -2 -26 0 -35 5 -12 7 -16 5 -16 -7 0 -29 -25 -15 -48 28 -13 23 -49 89
-80 147 -30 58 -75 140 -99 184 -24 43 -43 82 -43 87 0 5 -4 9 -10 9 -5 0 -10
-3 -10 -6 0 -6 77 -151 90 -169 9 -12 20 -45 16 -45 -1 0 -22 33 -46 73 -55
92 -350 536 -361 543 -5 3 -9 1 -9 -4z m559 -877 c0 -5 -8 6 -19 25 -11 19
-19 40 -19 45 0 6 8 -6 19 -25 11 -19 19 -39 19 -45z m211 35 c0 -6 -8 -25
-17 -43 -13 -25 -18 -28 -21 -14 -2 9 -8 17 -13 17 -5 0 -9 11 -9 25 0 21 5
25 30 25 17 0 30 -5 30 -10z m-7 -80 c-5 -19 -23 -29 -23 -12 0 7 20 32 26 32
1 0 0 -9 -3 -20z m-323 -28 c0 -5 -7 -9 -15 -9 -8 0 -12 4 -9 9 3 4 9 8 15 8
5 0 9 -4 9 -8z m18 -35 c6 3 12 0 12 -5 0 -6 10 -8 23 -5 18 4 19 3 7 -7 -12
-9 -9 -10 15 -5 23 4 33 1 43 -15 10 -17 10 -20 -3 -20 -8 0 -15 8 -15 18 0
12 -3 13 -8 4 -7 -9 -18 -9 -55 4 -26 9 -49 20 -52 24 -3 5 -13 7 -23 4 -14
-5 -14 -4 -3 4 8 6 22 7 30 3 9 -5 22 -6 29 -4z m136 -40 c1 -7 8 -22 14 -34
7 -13 10 -23 6 -23 -3 0 -2 -6 4 -12 8 -10 52 -116 52 -125 0 -2 -15 -3 -34
-3 -23 0 -39 7 -49 20 -8 11 -16 18 -18 16 -3 -3 -22 10 -44 29 l-40 34 45
-13 c25 -7 59 -16 75 -20 44 -10 11 11 -40 25 -74 21 -145 50 -140 59 3 5 0
12 -6 16 -7 4 -9 3 -5 -4 3 -5 1 -12 -6 -14 -20 -7 1 -27 99 -91 65 -42 89
-63 77 -65 -74 -13 -95 -23 -92 -45 4 -28 57 -46 155 -54 62 -5 73 -9 79 -27
17 -54 47 -104 69 -114 13 -6 27 -8 29 -3 12 18 8 68 -8 103 l-16 37 48 7 c26
3 55 11 65 16 17 9 17 8 3 -15 -12 -17 -24 -23 -46 -22 l-29 2 22 -23 c12 -13
23 -28 23 -33 3 -22 4 -23 18 -12 18 15 40 6 56 -24 7 -13 17 -22 21 -19 5 3
6 -3 2 -12 -4 -11 -3 -15 5 -10 6 3 14 1 18 -5 4 -8 3 -9 -4 -5 -7 4 -12 2
-12 -3 0 -6 4 -11 9 -11 5 0 17 -17 27 -37 21 -44 26 -65 13 -57 -5 3 -9 9 -9
14 0 5 -18 35 -40 66 -22 31 -37 61 -34 66 3 4 0 7 -8 6 -7 -2 -12 2 -11 9 1
6 -4 14 -12 16 -9 4 -13 -1 -12 -13 1 -11 6 -21 12 -24 20 -7 134 -209 151
-265 20 -69 13 -97 -26 -106 -19 -4 -36 -2 -46 6 -12 10 -13 9 -8 -5 5 -13 -1
-16 -37 -18 -148 -5 -184 -7 -184 -8 0 -4 -67 -4 -70 0 -2 3 -26 5 -54 5 -42
-1 -51 2 -46 15 3 9 -1 8 -10 -4 -15 -19 -15 -19 -16 5 -1 21 -2 22 -7 4 -4
-12 -15 -20 -27 -19 -11 1 -45 3 -75 5 -76 4 -100 16 -100 50 0 33 45 151 72
191 10 14 18 29 18 33 0 4 20 41 45 82 25 41 41 72 36 68 -15 -8 -113 -170
-155 -253 -20 -40 -38 -72 -40 -72 -2 0 -3 11 -2 25 2 13 -1 22 -6 19 -5 -3
-6 6 -2 22 5 19 4 25 -4 20 -8 -5 -10 -1 -5 10 4 11 3 15 -5 10 -8 -5 -10 18
-8 81 2 63 -2 96 -13 118 -17 34 -19 41 -25 108 -5 53 9 97 31 97 14 0 38 53
37 80 -1 9 5 21 12 28 8 7 14 10 14 7 0 -3 5 -3 10 0 7 4 6 13 -1 27 -9 16 -8
19 2 13 9 -6 11 -3 6 9 -4 10 -3 15 3 11 6 -3 10 -1 10 4 0 6 -4 11 -9 11 -5
0 -11 7 -14 14 -4 10 -1 13 9 9 7 -3 14 -9 14 -14 0 -5 5 -9 11 -9 6 0 29 -13
52 -28 39 -27 77 -45 77 -38 0 1 -25 20 -55 41 -31 21 -54 39 -53 41 2 1 29
-4 61 -13 62 -15 96 -12 80 10 -8 11 -9 20 -4 45 2 8 22 -25 25 -41z m90 -96
c20 -39 33 -71 29 -71 -5 0 -3 -4 3 -8 9 -6 54 -96 54 -108 0 -2 -10 -4 -23
-4 -25 0 -23 -4 -97 199 -44 117 -27 114 34 -8z m76 -86 c7 -9 8 -15 2 -15 -5
0 -12 7 -16 15 -3 8 -4 15 -2 15 2 0 9 -7 16 -15z m-74 -52 c4 -15 12 -34 18
-42 9 -12 -1 -13 -71 -7 -87 7 -133 19 -133 36 0 5 3 10 8 10 4 1 28 7 54 13
26 7 64 14 83 15 30 2 35 -1 41 -25z m128 21 c9 -3 16 -11 16 -17 0 -7 -4 -7
-12 1 -15 15 -28 15 -28 1 0 -5 4 -8 9 -4 5 3 12 1 16 -5 4 -7 13 -6 27 1 16
8 19 8 13 -1 -5 -9 -1 -10 14 -5 14 4 21 2 21 -7 0 -10 2 -10 9 1 5 8 11 9 15
3 8 -14 -26 -24 -49 -16 -13 5 -16 4 -11 -4 4 -7 2 -12 -3 -12 -6 0 -11 5 -11
11 0 6 -7 3 -16 -5 -20 -20 -38 -21 -30 0 3 8 2 13 -3 10 -7 -4 -31 34 -31 49
0 7 36 6 54 -1z m-16 -133 c7 -21 12 -51 12 -66 0 -27 -1 -27 -19 -11 -10 9
-28 39 -39 67 l-21 49 28 0 c24 0 30 -6 39 -39z"/>
<path d="M2661 1844 c0 -11 3 -14 6 -6 3 7 2 16 -1 19 -3 4 -6 -2 -5 -13z"/>
<path d="M2687 1839 c7 -7 15 -10 18 -7 3 3 -2 9 -12 12 -14 6 -15 5 -6 -5z"/>
<path d="M2635 1831 c-3 -5 -2 -12 3 -15 5 -3 9 1 9 9 0 17 -3 19 -12 6z"/>
<path d="M2673 1813 c9 -2 14 -9 11 -15 -4 -7 -2 -8 5 -4 15 10 4 26 -17 25
-15 -1 -15 -2 1 -6z"/>
<path d="M2694 1779 c-4 -7 -3 -9 4 -5 5 3 13 0 15 -6 4 -9 6 -10 6 -1 1 17
-16 25 -25 12z"/>
<path d="M2435 1732 c-60 -6 -135 -24 -141 -34 -15 -23 -11 -109 5 -129 15
-19 28 -20 191 -20 197 1 201 2 204 73 4 66 -7 85 -56 99 -42 11 -144 17 -203
11z"/>
<path d="M2226 1582 c-3 -4 4 -9 15 -9 23 -2 25 3 4 10 -8 4 -16 3 -19 -1z"/>
<path d="M2810 1560 c0 -5 5 -10 11 -10 5 0 7 5 4 10 -3 6 -8 10 -11 10 -2 0
-4 -4 -4 -10z"/>
<path d="M2233 1525 c6 -11 10 -24 9 -28 -1 -5 2 -6 7 -3 5 4 12 0 14 -6 4
-10 6 -10 6 1 1 11 6 10 26 -3 23 -15 25 -15 35 5 10 19 10 20 -9 10 -14 -8
-22 -8 -26 0 -4 6 -13 8 -21 5 -9 -3 -11 0 -7 11 5 12 2 15 -10 10 -9 -3 -17
-2 -17 2 0 5 6 11 13 14 6 3 2 4 -10 4 -19 -1 -20 -4 -10 -22z"/>
<path d="M2191 1527 c-8 -10 -7 -14 2 -14 8 0 14 6 14 14 0 7 -1 13 -2 13 -2
0 -8 -6 -14 -13z"/>
<path d="M2790 1521 c0 -6 4 -13 10 -16 6 -3 7 1 4 9 -7 18 -14 21 -14 7z"/>
<path d="M2215 1500 c-3 -5 -1 -10 4 -10 6 0 11 5 11 10 0 6 -2 10 -4 10 -3 0
-8 -4 -11 -10z"/>
<path d="M2441 1484 c0 -11 3 -14 6 -6 3 7 2 16 -1 19 -3 4 -6 -2 -5 -13z"/>
<path d="M1550 3218 c14 -6 58 -27 99 -45 41 -18 71 -36 67 -40 -4 -4 -44 -7
-89 -6 -67 0 -75 -1 -42 -8 65 -13 141 -11 154 5 10 12 4 19 -31 40 -46 27
-103 49 -153 59 -29 6 -29 6 -5 -5z"/>
<path d="M1545 3075 c23 -101 70 -211 102 -236 16 -12 17 -12 6 2 -7 8 -33 69
-58 135 -49 124 -61 150 -50 99z"/>
<path d="M2406 2869 c-4 -22 -20 -68 -37 -101 -34 -68 -23 -70 17 -2 14 24 27
44 29 44 2 0 3 -43 2 -95 -1 -52 1 -95 6 -95 4 0 8 17 8 38 2 45 2 198 0 230
-2 37 -18 25 -25 -19z"/>
<path d="M2953 2883 c125 -2 329 -2 455 0 125 1 22 2 -228 2 -250 0 -353 -1
-227 -2z"/>
<path d="M1676 2821 c5 -4 35 -18 66 -30 32 -13 62 -29 69 -37 10 -12 1 -14
-56 -14 -83 0 -82 -7 0 -13 133 -9 116 40 -29 84 -33 10 -55 15 -50 10z"/>
<path d="M3032 2799 c-97 -20 -150 -107 -129 -210 20 -99 164 -146 258 -85
154 103 54 333 -129 295z m86 -29 c47 -29 72 -76 71 -135 0 -105 -63 -162
-149 -136 -116 35 -130 240 -20 278 49 17 60 16 98 -7z"/>
<path d="M3286 2790 c-1 -3 -3 -21 -4 -40 l-1 -35 11 28 c11 25 16 27 65 27
29 0 53 -4 53 -10 0 -11 -9 -13 -61 -10 -21 1 -40 -3 -43 -8 -3 -6 17 -8 49
-7 l55 3 0 -119 0 -118 -32 -10 -33 -9 44 -1 c41 -1 43 0 39 23 -4 19 -1 24
13 23 12 -1 15 -6 10 -17 -5 -8 -6 -21 -4 -27 3 -7 -2 -13 -9 -13 -8 0 -15 -7
-15 -15 0 -12 12 -15 51 -14 28 1 41 4 29 6 -12 2 -27 11 -33 19 -10 12 -8 14
16 15 21 1 24 3 9 6 -11 3 -23 10 -26 15 -7 11 -5 215 2 223 3 3 26 7 52 9 32
2 48 -1 51 -10 12 -32 21 -10 12 29 l-10 43 -144 -1 c-79 0 -145 -2 -146 -5z
m274 -29 c0 -11 -99 -11 -106 1 -3 4 20 8 50 8 31 0 56 -4 56 -9z m-130 -21
c0 -5 0 -13 -1 -16 0 -4 5 -11 13 -16 10 -8 10 -9 -2 -5 -8 2 -15 8 -15 13 0
5 -4 15 -8 22 -5 7 -4 12 2 12 6 0 11 -4 11 -10z m15 -73 c0 -26 -18 -25 -20
1 -1 12 3 21 9 19 6 -2 11 -11 11 -20z m-3 -59 c-5 -13 -7 -33 -6 -46 1 -12
-1 -20 -4 -17 -12 12 -8 85 5 85 9 0 10 -7 5 -22z"/>
<path d="M3620 2789 c0 -4 9 -9 20 -12 22 -6 21 0 22 -162 1 -58 -3 -110 -8
-115 -5 -4 -20 -10 -34 -13 -14 -2 34 -5 106 -6 l130 -1 2 43 c1 39 0 40 -9
15 -11 -29 -50 -43 -105 -36 -28 3 -29 5 -32 66 l-3 62 45 0 c25 0 48 -4 51
-10 13 -22 24 -8 22 29 -1 39 -2 40 -20 21 -12 -14 -29 -19 -57 -18 l-40 1 0
59 0 58 54 0 c50 0 55 -2 64 -27 10 -28 10 -27 11 10 1 20 -2 37 -6 38 -35 5
-213 3 -213 -2z"/>
<path d="M2415 2599 c-4 -6 -5 -12 -2 -15 2 -3 7 2 10 11 7 17 1 20 -8 4z"/>
<path d="M2790 2349 c-47 -3 119 -6 369 -7 250 -1 452 0 449 3 -7 8 -715 11
-818 4z"/>
<path d="M1857 1783 c-10 -9 5 -33 19 -33 18 0 18 26 0 33 -8 3 -16 3 -19 0z"/>
<path d="M3450 1511 c0 -6 5 -13 10 -16 6 -3 10 1 10 9 0 9 -4 16 -10 16 -5 0
-10 -4 -10 -9z"/>
<path d="M2026 1411 c-4 -7 -5 -15 -2 -18 9 -9 19 4 14 18 -4 11 -6 11 -12 0z"/>
<path d="M1815 1180 c-3 -5 -1 -10 4 -10 6 0 11 5 11 10 0 6 -2 10 -4 10 -3 0
-8 -4 -11 -10z"/>
<path d="M2837 1183 c-10 -10 -8 -33 3 -33 5 0 14 9 20 20 8 15 8 20 -3 20 -8
0 -17 -3 -20 -7z"/>
<path d="M2940 1141 c0 -5 7 -11 15 -15 9 -3 15 0 15 9 0 8 -7 15 -15 15 -8 0
-15 -4 -15 -9z"/>
<path d="M2430 1124 c0 -8 5 -12 10 -9 6 3 10 10 10 16 0 5 -4 9 -10 9 -5 0
-10 -7 -10 -16z"/>
<path d="M2706 1099 c-33 -39 -33 -51 3 -72 41 -24 78 -10 79 30 0 30 -11 49
-39 63 -14 8 -23 3 -43 -21z"/>
<path d="M2018 1113 c7 -3 16 -2 19 1 4 3 -2 6 -13 5 -11 0 -14 -3 -6 -6z"/>
<path d="M2542 1068 c6 -18 28 -21 28 -4 0 9 -7 16 -16 16 -9 0 -14 -5 -12
-12z"/>
<path d="M2810 1040 c0 -5 5 -10 10 -10 6 0 10 5 10 10 0 6 -4 10 -10 10 -5 0
-10 -4 -10 -10z"/>
<path d="M2900 1026 c0 -9 5 -16 10 -16 6 0 10 4 10 9 0 6 -4 13 -10 16 -5 3
-10 -1 -10 -9z"/>
<path d="M2382 1007 c-14 -17 0 -39 20 -32 17 7 18 37 1 42 -5 2 -15 -2 -21
-10z"/>
<path d="M2595 940 c3 -5 11 -10 16 -10 6 0 7 5 4 10 -3 6 -11 10 -16 10 -6 0
-7 -4 -4 -10z"/>
<path d="M2572 888 c-11 -11 -4 -48 9 -48 7 0 29 32 29 43 0 11 -28 15 -38 5z"/>
</g>
</svg>
